HIERARCHY
ROOT Bip001_Pelvis
{
  OFFSET 7.937 94.8971 -8.5489
  CHANNELS 6 Xposition Yposition Zposition Zrotation Xrotation Yrotation
  JOINT Bip001_Spine
  {
    OFFSET 1.44608e-005 10.4157 -0.0118244
    CHANNELS 3 Zrotation Xrotation Yrotation
    JOINT Bip001_L_Thigh
    {
      OFFSET 11.2582 -10.4157 0.0118432
      CHANNELS 3 Zrotation Xrotation Yrotation
      JOINT Bip001_L_Calf
      {
        OFFSET -0.720717 -44.8687 0.366937
        CHANNELS 3 Zrotation Xrotation Yrotation
        JOINT Bip001_L_Foot
        {
          OFFSET -0.664439 -41.3745 -3.62995
          CHANNELS 3 Zrotation Xrotation Yrotation
          JOINT Bip001_L_Toe0
          {
            OFFSET 0.0541047 -10.4146 13.4033
            CHANNELS 3 Zrotation Xrotation Yrotation
            End Site
            {
              OFFSET -1.04503e-005 0 7.70137
            }
          }
        }
      }
    }
    JOINT Bip001_R_Thigh
    {
      OFFSET -11.2582 -10.4156 0.0118122
      CHANNELS 3 Zrotation Xrotation Yrotation
      JOINT Bip001_R_Calf
      {
        OFFSET 0.72059 -44.8687 0.36676
        CHANNELS 3 Zrotation Xrotation Yrotation
        JOINT Bip001_R_Foot
        {
          OFFSET 0.664321 -41.3745 -3.62979
          CHANNELS 3 Zrotation Xrotation Yrotation
          JOINT Bip001_R_Toe0
          {
            OFFSET -0.05417 -10.4146 13.4033
            CHANNELS 3 Zrotation Xrotation Yrotation
            End Site
            {
              OFFSET -1.04873e-005 0 7.70137
            }
          }
        }
      }
    }
    JOINT Bip001_Spine1
    {
      OFFSET 1.90638e-005 14.8539 1.10727
      CHANNELS 3 Zrotation Xrotation Yrotation
      JOINT Bip001_Spine2
      {
        OFFSET 2.28934e-005 14.7848 -1.7233
        CHANNELS 3 Zrotation Xrotation Yrotation
        JOINT Bip001_Neck
        {
          OFFSET 2.24514e-005 15.6905 -0.498826
          CHANNELS 3 Zrotation Xrotation Yrotation
          JOINT Bip001_L_Clavicle
          {
            OFFSET 6.17691 -0.000591152 0.00852867
            CHANNELS 3 Zrotation Xrotation Yrotation
            JOINT Bip001_L_UpperArm
            {
              OFFSET 11.773 -0.0611878 0.00197697
              CHANNELS 3 Zrotation Xrotation Yrotation
              JOINT Bip001_L_Forearm
              {
                OFFSET 26.4515 0.0817568 -2.19579
                CHANNELS 3 Zrotation Xrotation Yrotation
                JOINT Bip001_L_Hand
                {
                  OFFSET 32.8677 0.156744 1.67112
                  CHANNELS 3 Zrotation Xrotation Yrotation
                  JOINT Bip001_L_Finger0
                  {
                    OFFSET 6.16268 -2.25226 6.01674
                    CHANNELS 3 Zrotation Xrotation Yrotation
                    End Site
                    {
                      OFFSET 4.30499 -1.46662 0.618148
                    }
                  }
                  JOINT Bip001_L_Finger1
                  {
                    OFFSET 11.2957 -0.718374 -0.201963
                    CHANNELS 3 Zrotation Xrotation Yrotation
                    End Site
                    {
                      OFFSET 6.31952 -0.405163 -0.0802303
                    }
                  }
                }
              }
            }
          }
          JOINT Bip001_R_Clavicle
          {
            OFFSET -6.17691 -0.000574027 0.00851165
            CHANNELS 3 Zrotation Xrotation Yrotation
            JOINT Bip001_R_UpperArm
            {
              OFFSET -11.773 -0.0611516 0.00194365
              CHANNELS 3 Zrotation Xrotation Yrotation
              JOINT Bip001_R_Forearm
              {
                OFFSET -26.4514 0.0822334 -2.19736
                CHANNELS 3 Zrotation Xrotation Yrotation
                JOINT Bip001_R_Hand
                {
                  OFFSET -32.8677 0.156817 1.67144
                  CHANNELS 3 Zrotation Xrotation Yrotation
                  JOINT Bip001_R_Finger0
                  {
                    OFFSET -6.1627 -2.25224 6.0167
                    CHANNELS 3 Zrotation Xrotation Yrotation
                    End Site
                    {
                      OFFSET -4.30499 -1.46662 0.618134
                    }
                  }
                  JOINT Bip001_R_Finger1
                  {
                    OFFSET -11.2958 -0.718344 -0.201994
                    CHANNELS 3 Zrotation Xrotation Yrotation
                    End Site
                    {
                      OFFSET -6.31952 -0.405146 -0.0802475
                    }
                  }
                }
              }
            }
          }
          JOINT Bip001_Head
          {
            OFFSET 1.11782e-005 11.4912 2.09908
            CHANNELS 3 Zrotation Xrotation Yrotation
            End Site
            {
              OFFSET 2.95144e-005 21.2823 -2.83069e-005
            }
          }
        }
      }
    }
  }
}
MOTION
Frames:	8
Frame Time:	0.04
9.06596 95.4665 -9.14265 0.0160063 -1.41534 2.23469 -0.00699475 1.81034 0.253317 4.48912 -9.38697 7.39747 -1.20276 15.5634 -1.34177 -1.89503 -5.82644 0.69746 0.651349 -9.86877 0.232852 -9.05714 -6.23118 -1.28531 0.415442 13.9981 0.868078 2.63986 -7.28311 -9.28712 -1.19468 -11.5255 1.06668 -0.207213 3.62022 0.499236 -0.204667 3.62023 0.49942 -0.0572783 9.31605 -3.14196 -30.7508 -4.20867 -12.5159 -47.1654 42.9103 3.66413 13.2984 1.46812 -26.2822 -2.95278 -0.174862 -1.32797 6.36111e-015 3.18055e-015 -6.36111e-015 4.77083e-015 3.18056e-015 -4.77083e-015 35.0957 0.914671 20.1724 52.76 48.9588 -16.9423 13.3997 -47.874 33.0583 9.96133 -1.91312 -21.402 7.95139e-016 3.18055e-015 -0 -0 0 3.18055e-015 -1.11596 14.338 -2.72047 
9.01005 95.4684 -9.16473 0.00929342 -1.45547 1.91776 0.0080196 1.85972 0.1566 4.54433 -9.30601 7.5631 -1.20405 15.483 -1.35764 -1.93665 -5.85682 0.871249 0.665659 -9.83774 0.318604 -9.00063 -6.38834 -1.01906 0.419614 14.058 0.983159 2.61106 -7.28019 -9.27054 -1.2215 -11.5255 1.06331 -0.172198 3.71922 0.304004 -0.172199 3.71922 0.304005 0.145813 9.62787 -3.06143 -31.0287 -4.47093 -12.6392 -46.9573 42.884 3.52161 13.0961 1.63566 -25.6683 -3.18136 -0.219116 -1.32044 -1.59028e-015 3.18055e-015 1.59028e-015 1.59028e-015 0 -0 35.222 0.460817 19.7857 54.6345 45.5702 -18.8143 15.3155 -49.5461 36.2087 7.45705 -2.83323 -20.5267 -3.97569e-016 1.59028e-015 1.59028e-015 -4.41391e-032 1.59028e-015 1.59028e-015 -1.12695 14.3892 -2.56469 
8.94624 95.4706 -9.16293 -0.0127481 -1.54224 1.64339 0.0324592 1.89839 0.0935128 4.59952 -9.18663 7.71666 -1.20063 15.4467 -1.53943 -1.96851 -5.89444 1.17639 0.672768 -9.82428 0.368501 -8.94352 -6.44553 -0.819409 0.407915 14.0959 1.03202 2.5888 -7.26665 -9.18997 -1.24052 -11.5255 1.07244 -0.124851 3.79669 0.176776 -0.124851 3.79669 0.176778 0.345609 9.816 -3.04781 -31.2732 -4.66307 -12.645 -46.9957 43.0386 3.55157 13.0637 1.68675 -25.198 -3.32639 -0.218246 -1.27116 1.59028e-015 3.18055e-015 -2.38542e-015 1.59028e-015 3.18056e-015 -2.38542e-015 35.2942 0.122267 19.3641 51.9094 37.4502 -16.6421 15.0765 -45.3747 34.2407 7.13341 -3.25988 -18.1787 6.95746e-016 -7.95139e-016 -1.59028e-015 -2.98177e-016 -3.97569e-016 -0 -1.19435 14.4468 -2.45477 
8.83769 95.471 -9.13867 -0.115934 -1.6274 1.40028 0.0578205 1.89778 0.0443137 4.81373 -9.07727 7.75345 -1.30757 15.5203 -1.46051 -2.00577 -5.99563 1.30971 0.679043 -9.80798 0.415375 -8.75044 -6.42039 -0.856371 0.287821 14.0767 1.19392 2.56487 -7.22957 -9.02634 -1.23796 -11.5257 1.09252 -0.0838603 3.82505 0.0784654 -0.0838604 3.82505 0.0784654 0.74916 9.90607 -3.2573 -31.5359 -4.89438 -12.4568 -47.1037 42.9491 3.48975 12.9286 1.79157 -24.7955 -3.42153 -0.244064 -1.18801 -1.76556e-031 -6.36111e-015 -1.59028e-015 1.59028e-015 0 -7.95139e-016 35.3154 0.0231015 19.0973 51.4717 33.8144 -16.7037 15.0325 -44.2127 35.0731 7.14275 -4.04079 -16.8609 -3.47873e-016 -3.97569e-016 -1.59028e-015 3.47873e-016 -3.97569e-016 -1.59028e-015 -1.50157 14.6005 -2.40387 
8.78187 95.4727 -9.10901 -0.127934 -1.74565 1.12635 0.0542299 1.89629 0.0263758 4.83496 -8.86406 7.83083 -1.19977 15.4673 -1.27073 -2.14169 -6.0463 1.2367 0.68773 -9.79129 0.471746 -8.69281 -6.38459 -0.829009 0.26218 14.1244 1.36747 2.51761 -7.2313 -8.92726 -1.23573 -11.5279 1.10084 -0.085995 3.81929 0.0355224 -0.0842819 3.81928 0.0352269 0.935408 9.89259 -3.29528 -31.6063 -4.91708 -12.4258 -47.3727 42.7291 3.72449 12.8266 1.81916 -24.7177 -3.42768 -0.238167 -1.12575 -1.76556e-031 6.36111e-015 1.59028e-015 4.77083e-015 3.18056e-015 -7.95139e-016 35.4055 0.00990392 18.8975 50.8573 31.5853 -16.6194 15.2425 -43.4761 36.3467 7.18655 -5.07856 -15.4096 -9.93923e-017 -1.59028e-015 1.59028e-015 7.95139e-016 -1.59028e-015 1.59028e-015 -1.51326 14.8727 -2.36339 
8.7062 95.4759 -9.06783 -0.199315 -1.85117 0.843676 0.050303 1.89446 0.0254507 5.01232 -8.67586 8.08943 -1.22466 15.5035 -1.22042 -2.20281 -6.12137 1.18259 0.695026 -9.7836 0.487158 -8.57858 -6.30614 -0.485889 0.357884 14.0867 1.30904 2.42405 -7.20324 -8.9431 -1.2344 -11.5309 1.11501 -0.0873683 3.78891 0.0109954 -0.0837417 3.78893 0.0107723 1.02046 9.59318 -3.49978 -31.542 -4.81463 -12.0216 -47.5038 42.7047 3.77085 12.6709 1.81834 -24.5969 -3.44632 -0.223182 -1.27972 -6.36111e-015 3.18055e-015 -0 -4.77083e-015 0 -2.38542e-015 35.4024 0.377495 18.8652 50.0725 31.12 -16.5379 16.6918 -43.1343 39.8469 6.64667 -4.99522 -15.4319 -4.47265e-016 0 1.59028e-015 -7.45442e-016 1.59028e-015 7.95139e-016 -1.49332 15.2591 -2.53256 
8.62288 95.4652 -9.0357 -0.273771 -1.94829 0.541899 0.0455649 1.87197 0.024844 5.21206 -8.54017 8.43177 -1.22485 15.6616 -0.898274 -2.31934 -6.23142 0.823748 0.695134 -9.79048 0.455263 -8.41901 -6.29278 -0.329742 0.331672 14.1741 1.54229 2.30979 -7.21751 -9.00982 -1.20221 -11.5325 1.08987 -0.0926736 3.74393 0.0357894 -0.0926736 3.74393 0.0357894 1.08336 9.44663 -3.76377 -31.4366 -4.80008 -11.8426 -47.4375 42.6789 3.64011 12.479 1.91335 -24.3084 -3.60686 -0.257001 -1.31057 -1.59028e-015 -3.18055e-015 7.95139e-016 -1.59028e-015 0 -7.95139e-016 35.283 0.532904 18.7756 48.5726 29.6297 -16.1881 15.0306 -38.7118 43.2339 3.27227 -2.94396 -18.5099 -2.17421e-017 -9.93923e-017 -7.95139e-016 -9.62863e-017 -1.98785e-016 -3.97569e-016 -1.45865 14.8884 -2.78626 
8.51378 95.4462 -9.01491 -0.413475 -1.99575 0.197474 0.0432199 1.81448 0.00773106 5.49368 -8.46757 8.95526 -1.17634 15.9333 -0.981331 -2.41977 -6.42143 0.709147 0.699256 -9.79013 0.458053 -8.15416 -6.31553 -1.17708 -0.0240665 14.284 2.43721 2.23434 -7.20285 -8.64897 -1.12637 -11.5573 1.08566 -0.0943977 3.62895 0.00535745 -0.0943978 3.62895 0.0053575 1.15273 9.07751 -4.10069 -31.2778 -4.68844 -11.3539 -47.5816 42.3841 3.80538 12.4932 2.09691 -24.255 -3.62159 -0.295856 -1.42588 -1.59028e-015 0 -0 -4.77083e-015 -6.36111e-015 1.59028e-015 34.8641 0.756494 18.4337 46.5555 26.0555 -15.4763 10.1298 -31.3329 46.9007 2.40481 0.345382 -20.7848 -1.19271e-015 2.38542e-015 7.95139e-016 -1.2921e-015 1.59028e-015 3.97569e-016 -1.5782 14.5572 -3.05581 
